<!DOCTYPE svg PUBLIC "-//W3C//DTD SVG 1.1//EN" "http://www.w3.org/Graphics/SVG/1.1/DTD/svg11.dtd">
<!-- Uploaded to: SVG Repo, www.svgrepo.com, Transformed by: SVG Repo Mixer Tools -->
<svg width="800px" height="800px" viewBox="0 0 24 24" fill="none" xmlns="http://www.w3.org/2000/svg" stroke="#212121">
<g id="SVGRepo_bgCarrier" stroke-width="0"/>
<g id="SVGRepo_tracerCarrier" stroke-linecap="round" stroke-linejoin="round"/>
<g id="SVGRepo_iconCarrier">
<path fill-rule="evenodd" clip-rule="evenodd" d="M20.8 4H3.2C2.54 4 2 4.54 2 5.2v12.4C2 18.92 3.08 20 4.4 20h15.2c1.32 0 2.4-1.08 2.4-2.4V5.2c0-.66-.54-1.2-1.2-1.2ZM5.65 6.3a1 1 0 1 0-1.3 1.52l6.87 5.89a1.2 1.2 0 0 0 .78.285 1.2 1.2 0 0 0 .78-.286l6.87-5.89a1 1 0 1 0-1.3-1.518L12 11.744 5.65 6.301Z" fill="#ffffff"/>
</g>
</svg>